#!OML:ASF G:\JayActor3\Patient Classification 1\Patient 1\Session 6\male.ASF
:FULLY-SPECIFIED
:DEGREES
1009
root 3.6378 16.2911 -21.9497 172.94 -68.2029 -177.456
lowerback 5.14396 -1.66622 -0.51304
upperback -2.86836 -2.26439 0.334365
thorax -5.8314 -1.09778 0.864173
lowerneck -6.11597 -0.747759 2.78062
upperneck 22.6602 0.70092 -15.2134
head 8.01045 -1.30506 -5.62251
rclavicle 2.22949e-014 1.68967e-015
rhumerus -44.6521 7.38444 -54.7872
rradius 70.4142
rwrist -8.45686
rhand -15.9966 -0.17493
rfingers 7.12502
rthumb 10.2034 -29.9075
lclavicle 2.22949e-014 1.68967e-015
lhumerus -38.7721 -11.2098 80.3785
lradius 30.9787
lwrist 21.161
lhand -8.45187 9.33742
lfingers 7.12502
lthumb 17.474 38.5721
rfemur -12.9191 6.96398 15.3582
rtibia 36.5958
rfoot -19.9455 -11.8913
rtoes 1.90688
lfemur 6.20306 4.49306 -13.635
ltibia 16.7789
lfoot -15.8931 -2.19892
ltoes -4.42079
1010
root 3.63379 16.29 -21.9791 172.805 -68.5847 -177.335
lowerback 5.16187 -1.65286 -0.413993
upperback -2.87535 -2.2349 0.414511
thorax -5.85003 -1.08533 0.889815
lowerneck -6.09631 -0.817622 2.74064
upperneck 22.8064 0.620972 -15.2439
head 8.04758 -1.35742 -5.63992
rclavicle -9.78968e-014 -1.87727e-014
rhumerus -44.4905 7.17184 -54.8764
rradius 70.5183
rwrist -8.69411
rhand -15.9985 -0.238104
rfingers 7.12502
rthumb 10.2016 -29.9707
lclavicle -9.78968e-014 -1.87727e-014
lhumerus -38.7426 -11.1426 80.4317
lradius 30.9384
lwrist 21.1085
lhand -8.4419 9.3526
lfingers 7.12502
lthumb 17.4836 38.5864
rfemur -12.7751 6.74412 15.4747
rtibia 36.6443
rfoot -20.1275 -12.0247
rtoes 1.84719
lfemur 6.18258 4.31583 -13.5002
ltibia 16.8042
lfoot -15.8391 -2.44077
ltoes -4.39974
1011
root 3.6299 16.2889 -22.0079 172.641 -68.9599 -177.183
lowerback 5.1742 -1.63886 -0.299403
upperback -2.87917 -2.20315 0.49879
thorax -5.86259 -1.07239 0.91056
lowerneck -6.08028 -0.894142 2.68817
upperneck 22.9369 0.531638 -15.2675
head 8.07932 -1.41361 -5.65262
rclavicle 9.47333e-015 1.09332e-015
rhumerus -44.3217 6.95645 -54.9587
rradius 70.598
rwrist -8.91939
rhand -15.9673 -0.305118
rfingers 7.12502
rthumb 10.2317 -30.0363
lclavicle 9.47333e-015 1.09332e-015
lhumerus -38.7043 -11.0745 80.4896
lradius 30.9027
lwrist 21.0518
lhand -8.44409 9.32991
lfingers 7.12502
lthumb 17.4815 38.5639
rfemur -12.6344 6.50705 15.5968
rtibia 36.6869
rfoot -20.2994 -12.1351
rtoes 1.81152
lfemur 6.14846 4.14425 -13.3558
ltibia 16.8475
lfoot -15.7909 -2.68293
ltoes -4.37776
1012
root 3.62605 16.2878 -22.0363 172.461 -69.3308 -177.01
lowerback 5.18099 -1.62432 -0.1731
upperback -2.88118 -2.1697 0.585505
thorax -5.87044 -1.05912 0.92688
lowerneck -6.07365 -0.976189 2.62094
upperneck 23.0606 0.435144 -15.2821
head 8.1101 -1.47328 -5.65994
rclavicle 3.11968e-014 -4.12478e-015
rhumerus -44.1446 6.73964 -55.035
rradius 70.644
rwrist -9.11796
rhand -15.9181 -0.367883
rfingers 7.12502
rthumb 10.2792 -30.0967
lclavicle 3.11968e-014 -4.12478e-015
lhumerus -38.6525 -10.992 80.5427
lradius 30.8719
lwrist 20.9974
lhand -8.43707 9.29366
lfingers 7.12502
lthumb 17.4883 38.527
rfemur -12.4977 6.25525 15.7199
rtibia 36.725
rfoot -20.463 -12.2305
rtoes 1.77969
lfemur 6.10142 3.9737 -13.2082
ltibia 16.9056
lfoot -15.7472 -2.9213
ltoes -4.3486
1013
root 3.62221 16.2866 -22.0641 172.281 -69.6973 -176.837
lowerback 5.18476 -1.60903 -0.0416696
upperback -2.88123 -2.13491 0.672739
thorax -5.87467 -1.04545 0.940588
lowerneck -6.08305 -1.06296 2.54389
upperneck 23.183 0.333635 -15.294
head 8.14322 -1.53614 -5.66524
rclavicle 3.49613e-014 2.88238e-015
rhumerus -43.9704 6.52301 -55.1067
rradius 70.6723
rwrist -9.27477
rhand -15.877 -0.454188
rfingers 7.12502
rthumb 10.3188 -30.181
lclavicle 3.49613e-014 2.88238e-015
lhumerus -38.5919 -10.9028 80.5937
lradius 30.854
lwrist 20.9585
lhand -8.43356 9.26501
lfingers 7.12502
lthumb 17.4916 38.4981
rfemur -12.3647 5.99057 15.8365
rtibia 36.7606
rfoot -20.6195 -12.3123
rtoes 1.75754
lfemur 6.04637 3.80243 -13.0654
ltibia 16.9733
lfoot -15.7085 -3.15542
ltoes -4.30796
1014
root 3.61852 16.2853 -22.0915 172.106 -70.0587 -176.665
lowerback 5.19055 -1.59106 0.0946171
upperback -2.88564 -2.09632 0.75971
thorax -5.88487 -1.03015 0.951095
lowerneck -6.10934 -1.15394 2.45723
upperneck 23.3169 0.228361 -15.3027
head 8.18333 -1.60242 -5.66916
rclavicle -3.97321e-014 -9.83984e-015
rhumerus -43.8046 6.30388 -55.1715
rradius 70.676
rwrist -9.39108
rhand -15.8354 -0.539339
rfingers 7.12502
rthumb 10.3589 -30.2642
lclavicle -3.97321e-014 -9.83984e-015
lhumerus -38.5267 -10.8034 80.6412
lradius 30.8453
lwrist 20.9223
lhand -8.42354 9.25836
lfingers 7.12502
lthumb 17.5013 38.4906
rfemur -12.2393 5.72012 15.9473
rtibia 36.7951
rfoot -20.7713 -12.3817
rtoes 1.75302
lfemur 5.98294 3.63064 -12.9277
ltibia 17.0458
lfoot -15.6723 -3.38501
ltoes -4.25451
1015
root 3.61503 16.284 -22.1186 171.925 -70.4204 -176.482
lowerback 5.19588 -1.57278 0.236058
upperback -2.89318 -2.05698 0.847953
thorax -5.89821 -1.01473 0.960027
lowerneck -6.15123 -1.24834 2.36062
upperneck 23.4607 0.120118 -15.307
head 8.22975 -1.67149 -5.67103
rclavicle 1.27471e-014 -1.41137e-014
rhumerus -43.6562 6.08106 -55.2298
rradius 70.6694
rwrist -9.46662
rhand -15.803 -0.638671
rfingers 7.12502
rthumb 10.3902 -30.362
lclavicle 1.27471e-014 -1.41137e-014
lhumerus -38.4569 -10.6883 80.6778
lradius 30.859
lwrist 20.9164
lhand -8.37488 9.30678
lfingers 7.12502
lthumb 17.5481 38.5348
rfemur -12.1199 5.45733 16.06
rtibia 36.829
rfoot -20.9248 -12.4611
rtoes 1.75794
lfemur 5.91281 3.45311 -12.7906
ltibia 17.1174
lfoot -15.6361 -3.60755
ltoes -4.22231
1016
root 3.61184 16.2827 -22.1455 171.743 -70.7813 -176.293
lowerback 5.19696 -1.55325 0.381555
upperback -2.9027 -2.0158 0.935975
thorax -5.91134 -0.998657 0.966185
lowerneck -6.20411 -1.34628 2.2616
upperneck 23.6111 0.00800394 -15.3098
head 8.28041 -1.74306 -5.67305
rclavicle 2.26118e-014 1.39149e-014
rhumerus -43.5234 5.84683 -55.282
rradius 70.6516
rwrist -9.51636
rhand -15.7531 -0.751948
rfingers 7.12502
rthumb 10.4384 -30.4728
lclavicle 2.26118e-014 1.39149e-014
lhumerus -38.3803 -10.5669 80.7084
lradius 30.8862
lwrist 20.9296
lhand -8.30205 9.40148
lfingers 7.12502
lthumb 17.6182 38.6232
rfemur -12.0097 5.1996 16.1723
rtibia 36.8621
rfoot -21.0776 -12.5419
rtoes 1.77953
lfemur 5.83566 3.26953 -12.6558
ltibia 17.1846
lfoot -15.597 -3.8257
ltoes -4.18188
1017
root 3.60906 16.2816 -22.1723 171.557 -71.1414 -176.096
lowerback 5.19824 -1.53227 0.530335
upperback -2.91558 -1.97255 1.02386
thorax -5.92822 -0.981767 0.970252
lowerneck -6.26109 -1.44873 2.1593
upperneck 23.7616 -0.109989 -15.3106
head 8.33161 -1.81754 -5.67452
rclavicle -5.643e-014 1.94809e-014
rhumerus -43.4079 5.59488 -55.3241
rradius 70.6211
rwrist -9.56097
rhand -15.6727 -0.886554
rfingers 7.12502
rthumb 10.5159 -30.6035
lclavicle -5.643e-014 1.94809e-014
lhumerus -38.306 -10.4507 80.7416
lradius 30.9327
lwrist 20.9824
lhand -8.24475 9.51312
lfingers 7.12502
lthumb 17.6733 38.7299
rfemur -11.9067 4.96458 16.2883
rtibia 36.8931
rfoot -21.2355 -12.6412
rtoes 1.81482
lfemur 5.75283 3.08418 -12.5208
ltibia 17.2454
lfoot -15.5508 -4.04299
ltoes -4.13281
1018
root 3.6065 16.2806 -22.1989 171.386 -71.5059 -175.913
lowerback 5.19549 -1.51155 0.674889
upperback -2.92706 -1.9302 1.10893
thorax -5.94121 -0.96529 0.973688
lowerneck -6.31553 -1.55535 2.0605
upperneck 23.901 -0.234325 -15.3138
head 8.37805 -1.89407 -5.67734
rclavicle 2.28602e-014 1.37161e-014
rhumerus -43.3013 5.32363 -55.3559
rradius 70.5808
rwrist -9.61862
rhand -15.5642 -0.995382
rfingers 7.12502
rthumb 10.6205 -30.707
lclavicle 2.28602e-014 1.37161e-014
lhumerus -38.2282 -10.3494 80.7815
lradius 30.9872
lwrist 21.068
lhand -8.21664 9.60984
lfingers 7.12502
lthumb 17.7004 38.8242
rfemur -11.8059 4.73998 16.3971
rtibia 36.9219
rfoot -21.3979 -12.7481
rtoes 1.85682
lfemur 5.66751 2.89949 -12.3943
ltibia 17.3001
lfoot -15.4988 -4.2614
ltoes -4.08982
1019
root 3.60432 16.2798 -22.2252 171.224 -71.8676 -175.737
lowerback 5.18814 -1.48853 0.81972
upperback -2.93707 -1.88501 1.19219
thorax -5.95006 -0.947523 0.974621
lowerneck -6.3663 -1.66788 1.96274
upperneck 24.0245 -0.367417 -15.3189
head 8.41768 -1.97365 -5.68077
rclavicle -3.73218e-014 -1.13307e-014
rhumerus -43.1994 5.02867 -55.3766
rradius 70.53
rwrist -9.68478
rhand -15.4216 -1.08936
rfingers 7.12502
rthumb 10.7581 -30.7939
lclavicle -3.73218e-014 -1.13307e-014
lhumerus -38.145 -10.2586 80.8284
lradius 31.0404
lwrist 21.1479
lhand -8.22858 9.6737
lfingers 7.12502
lthumb 17.6889 38.8891
rfemur -11.7118 4.52913 16.5026
rtibia 36.949
rfoot -21.5634 -12.8591
rtoes 1.9198
lfemur 5.57825 2.72203 -12.2719
ltibia 17.3496
lfoot -15.4408 -4.48365
ltoes -4.02605
1020
root 3.60254 16.2792 -22.2514 171.071 -72.2296 -175.568
lowerback 5.17859 -1.4643 0.963406
upperback -2.94516 -1.83849 1.27389
thorax -5.95559 -0.929134 0.974348
lowerneck -6.41298 -1.78432 1.87071
upperneck 24.1298 -0.506327 -15.3311
head 8.44981 -2.05483 -5.68699
rclavicle 4.58696e-014 9.93923e-015
rhumerus -43.0918 4.71506 -55.3867
rradius 70.4582
rwrist -9.75848
rhand -15.264 -1.14517
rfingers 7.12502
rthumb 10.9101 -30.8417
lclavicle 4.58696e-014 9.93923e-015
lhumerus -38.0545 -10.1825 80.886
lradius 31.0855
lwrist 21.2137
lhand -8.28132 9.69273
lfingers 7.12502
lthumb 17.6381 38.9127
rfemur -11.6213 4.33011 16.6044
rtibia 36.9759
rfoot -21.7356 -12.974
rtoes 1.99877
lfemur 5.48482 2.55445 -12.1525
ltibia 17.3962
lfoot -15.3765 -4.71291
ltoes -3.95115
1021
root 3.60126 16.2785 -22.2772 170.937 -72.5916 -175.419
lowerback 5.1724 -1.44046 1.10153
upperback -2.95385 -1.79296 1.35468
thorax -5.96348 -0.911065 0.976472
lowerneck -6.45167 -1.90065 1.78085
upperneck 24.2174 -0.646033 -15.3457
head 8.47441 -2.13513 -5.6933
rclavicle 3.62782e-015 -3.57812e-015
rhumerus -42.9892 4.39355 -55.39
rradius 70.3822
rwrist -9.82624
rhand -15.1064 -1.17354
rfingers 7.12502
rthumb 11.0621 -30.862
lclavicle 3.62782e-015 -3.57812e-015
lhumerus -37.9657 -10.1129 80.9509
lradius 31.1284
lwrist 21.257
lhand -8.35118 9.68312
lfingers 7.12502
lthumb 17.5709 38.9091
rfemur -11.5359 4.13666 16.698
rtibia 37.0052
rfoot -21.909 -13.0913
rtoes 2.07492
lfemur 5.38723 2.3983 -12.0391
ltibia 17.4409
lfoot -15.3075 -4.95254
ltoes -3.86276
1022
root 3.60045 16.2777 -22.3027 170.818 -72.9542 -175.286
lowerback 5.1744 -1.41868 1.23394
upperback -2.96482 -1.75047 1.43618
thorax -5.97816 -0.894291 0.983168
lowerneck -6.48296 -2.01295 1.69564
upperneck 24.2906 -0.780783 -15.3657
head 8.49317 -2.21223 -5.70091
rclavicle 1.31198e-014 1.43125e-014
rhumerus -42.8814 4.07387 -55.3898
rradius 70.2914
rwrist -9.8828
rhand -14.9617 -1.18533
rfingers 7.12502
rthumb 11.2017 -30.8663
lclavicle 1.31198e-014 1.43125e-014
lhumerus -37.8798 -10.0292 81.0181
lradius 31.1637
lwrist 21.2579
lhand -8.44226 9.64466
lfingers 7.12502
lthumb 17.4833 38.8785
rfemur -11.4551 3.94446 16.784
rtibia 37.0392
rfoot -22.0849 -13.2013
rtoes 2.17141
lfemur 5.28745 2.2507 -11.9303
ltibia 17.484
lfoot -15.2398 -5.20225
ltoes -3.76624
1023
root 3.60006 16.2768 -22.328 170.726 -73.3168 -175.181
lowerback 5.18514 -1.39943 1.35609
upperback -2.97957 -1.71188 1.51868
thorax -6.00146 -0.879066 0.997415
lowerneck -6.50644 -2.11832 1.61467
upperneck 24.3504 -0.90673 -15.3893
head 8.50679 -2.28427 -5.70891
rclavicle -4.38817e-014 2.54444e-014
rhumerus -42.7692 3.75945 -55.3882
rradius 70.1874
rwrist -9.91965
rhand -14.837 -1.19574
rfingers 7.12502
rthumb 11.3219 -30.8701
lclavicle -4.38817e-014 2.54444e-014
lhumerus -37.8043 -9.92908 81.0834
lradius 31.2114
lwrist 21.2597
lhand -8.49523 9.632
lfingers 7.12502
lthumb 17.4323 38.8703
rfemur -11.3809 3.75938 16.8604
rtibia 37.0797
rfoot -22.2655 -13.3107
rtoes 2.27204
lfemur 5.18492 2.11166 -11.8293
ltibia 17.525
lfoot -15.1729 -5.4609
ltoes -3.68446
